<?xml version="1.0" encoding="UTF-8" standalone="no"?><!DOCTYPE svg PUBLIC "-//W3C//DTD SVG 1.1//EN" "http://www.w3.org/Graphics/SVG/1.1/DTD/svg11.dtd"><svg width="100%" height="100%" viewBox="0 0 512 512" version="1.1" xmlns="http://www.w3.org/2000/svg" xmlns:xlink="http://www.w3.org/1999/xlink" xml:space="preserve" xmlns:serif="http://www.serif.com/" style="fill-rule:evenodd;clip-rule:evenodd;stroke-linecap:round;stroke-linejoin:round;stroke-miterlimit:1.5;"><rect id="Artboard1" x="0" y="0" width="512" height="512" style="fill:none;"/><g id="Artboard11" serif:id="Artboard1"><path d="M88.826,393.182l49.1,-24.41" style="fill:none;stroke:#fff;stroke-width:24px;"/><path d="M88.826,183.814l49.1,26.159" style="fill:none;stroke:#fff;stroke-width:24px;"/><path d="M444.702,80.787l-49.562,68.645" style="fill:none;stroke:#fff;stroke-width:24px;"/><circle cx="292.119" cy="292.119" r="169.561" style="fill:none;stroke:#fff;stroke-width:24px;"/><circle cx="56.826" cy="166.766" r="32" style="fill:none;stroke:#fff;stroke-width:24px;"/><circle cx="64.826" cy="405.113" r="24" style="fill:none;stroke:#fff;stroke-width:24px;"/><circle cx="467.807" cy="48.787" r="32" style="fill:none;stroke:#fff;stroke-width:24px;"/><path d="M288.119,365.719l-0.001,0.186l-0.004,0.185l-0.006,0.185l-0.008,0.184l-0.01,0.184l-0.013,0.183l-0.015,0.182l-0.018,0.182l-0.019,0.181l-0.022,0.181l-0.024,0.179l-0.026,0.18l-0.029,0.178l-0.03,0.177l-0.033,0.177l-0.035,0.176l-0.037,0.176l-0.039,0.174l-0.042,0.174l-0.043,0.173l-0.045,0.172l-0.048,0.171l-0.049,0.17l-0.052,0.17l-0.054,0.169l-0.055,0.167l-0.058,0.167l-0.06,0.166l-0.061,0.165l-0.064,0.164l-0.065,0.163l-0.068,0.162l-0.069,0.161l-0.071,0.16l-0.073,0.159l-0.075,0.157l-0.077,0.157l-0.079,0.156l-0.08,0.155l-0.082,0.153l-0.084,0.153l-0.086,0.151l-0.088,0.15l-0.089,0.149l-0.091,0.148l-0.093,0.147l-0.095,0.145l-0.096,0.145l-0.098,0.143l-0.099,0.141l-0.102,0.141l-0.103,0.139l-0.104,0.138l-0.106,0.137l-0.108,0.135l-0.109,0.134l-0.111,0.133l-0.112,0.131l-0.114,0.13l-0.116,0.129l-0.117,0.127l-0.118,0.126l-0.12,0.124l-0.122,0.123l-0.123,0.122l-0.124,0.12l-0.126,0.118l-0.127,0.117l-0.129,0.116l-0.13,0.114l-0.131,0.112l-0.133,0.111l-0.134,0.109l-0.135,0.108l-0.137,0.106l-0.138,0.104l-0.139,0.103l-0.141,0.102l-0.141,0.099l-0.143,0.098l-0.145,0.096l-0.145,0.095l-0.147,0.093l-0.148,0.091l-0.149,0.089l-0.15,0.088l-0.151,0.086l-0.153,0.084l-0.153,0.082l-0.155,0.08l-0.156,0.079l-0.157,0.077l-0.157,0.075l-0.159,0.073l-0.16,0.071l-0.161,0.069l-0.162,0.068l-0.163,0.065l-0.164,0.064l-0.165,0.061l-0.166,0.06l-0.167,0.058l-0.167,0.055l-0.169,0.054l-0.17,0.052l-0.17,0.049l-0.171,0.048l-0.172,0.045l-0.173,0.043l-0.174,0.042l-0.174,0.039l-0.176,0.037l-0.176,0.035l-0.177,0.033l-0.177,0.03l-0.178,0.029l-0.18,0.026l-0.179,0.024l-0.181,0.022l-0.181,0.019l-0.182,0.018l-0.182,0.015l-0.183,0.013l-0.184,0.01l-0.184,0.008l-0.185,0.006l-0.185,0.004l-0.186,0.001l-43.2,0l-0.186,-0.001l-0.186,-0.004l-0.185,-0.006l-0.184,-0.008l-0.183,-0.01l-0.183,-0.013l-0.183,-0.015l-0.182,-0.018l-0.181,-0.019l-0.18,-0.022l-0.18,-0.024l-0.179,-0.026l-0.178,-0.029l-0.178,-0.03l-0.177,-0.033l-0.176,-0.035l-0.175,-0.037l-0.175,-0.039l-0.173,-0.042l-0.173,-0.043l-0.172,-0.045l-0.172,-0.048l-0.17,-0.049l-0.169,-0.052l-0.169,-0.054l-0.168,-0.055l-0.166,-0.058l-0.166,-0.06l-0.165,-0.061l-0.164,-0.064l-0.163,-0.065l-0.162,-0.068l-0.161,-0.069l-0.16,-0.071l-0.159,-0.073l-0.158,-0.075l-0.157,-0.077l-0.155,-0.079l-0.155,-0.08l-0.154,-0.082l-0.152,-0.084l-0.152,-0.086l-0.15,-0.088l-0.149,-0.089l-0.148,-0.091l-0.146,-0.093l-0.146,-0.095l-0.144,-0.096l-0.143,-0.098l-0.142,-0.099l-0.14,-0.102l-0.14,-0.103l-0.138,-0.104l-0.136,-0.106l-0.136,-0.108l-0.134,-0.109l-0.132,-0.111l-0.132,-0.112l-0.13,-0.114l-0.128,-0.116l-0.128,-0.117l-0.125,-0.118l-0.125,-0.12l-0.123,-0.122l-0.121,-0.123l-0.12,-0.124l-0.118,-0.126l-0.117,-0.127l-0.116,-0.129l-0.114,-0.13l-0.112,-0.131l-0.111,-0.133l-0.11,-0.134l-0.107,-0.135l-0.106,-0.137l-0.105,-0.138l-0.103,-0.139l-0.101,-0.141l-0.1,-0.141l-0.098,-0.143l-0.096,-0.145l-0.094,-0.145l-0.093,-0.147l-0.091,-0.148l-0.09,-0.149l-0.087,-0.15l-0.086,-0.151l-0.084,-0.153l-0.082,-0.153l-0.081,-0.155l-0.079,-0.156l-0.076,-0.157l-0.075,-0.157l-0.073,-0.159l-0.072,-0.16l-0.069,-0.161l-0.067,-0.162l-0.066,-0.163l-0.063,-0.164l-0.062,-0.165l-0.059,-0.166l-0.058,-0.167l-0.056,-0.167l-0.053,-0.169l-0.052,-0.17l-0.05,-0.17l-0.047,-0.171l-0.046,-0.172l-0.043,-0.173l-0.041,-0.174l-0.039,-0.174l-0.037,-0.176l-0.035,-0.176l-0.033,-0.177l-0.031,-0.177l-0.028,-0.178l-0.026,-0.18l-0.024,-0.179l-0.022,-0.181l-0.02,-0.181l-0.017,-0.182l-0.015,-0.182l-0.013,-0.183l-0.01,-0.184l-0.009,-0.184l-0.006,-0.185l-0.003,-0.185l-0.001,-0.186l0,-43.2l0.001,-0.186l0.003,-0.186l0.006,-0.185l0.009,-0.184l0.01,-0.183l0.013,-0.183l0.015,-0.183l0.017,-0.182l0.02,-0.181l0.022,-0.18l0.024,-0.18l0.026,-0.179l0.028,-0.178l0.031,-0.178l0.033,-0.177l0.035,-0.176l0.037,-0.175l0.039,-0.175l0.041,-0.173l0.043,-0.173l0.046,-0.172l0.047,-0.172l0.05,-0.17l0.052,-0.169l0.053,-0.169l0.056,-0.168l0.058,-0.166l0.059,-0.166l0.062,-0.165l0.063,-0.164l0.066,-0.163l0.067,-0.162l0.069,-0.161l0.072,-0.16l0.073,-0.159l0.075,-0.158l0.076,-0.157l0.079,-0.155l0.081,-0.155l0.082,-0.154l0.084,-0.152l0.086,-0.152l0.087,-0.15l0.09,-0.149l0.091,-0.148l0.093,-0.146l0.094,-0.146l0.096,-0.144l0.098,-0.143l0.1,-0.142l0.101,-0.14l0.103,-0.14l0.105,-0.138l0.106,-0.136l0.107,-0.136l0.11,-0.134l0.111,-0.132l0.112,-0.132l0.114,-0.13l0.116,-0.128l0.117,-0.128l0.118,-0.125l0.12,-0.125l0.121,-0.123l0.123,-0.121l0.125,-0.12l0.125,-0.118l0.128,-0.117l0.128,-0.116l0.13,-0.114l0.132,-0.112l0.132,-0.111l0.134,-0.11l0.136,-0.107l0.136,-0.106l0.138,-0.105l0.14,-0.103l0.14,-0.101l0.142,-0.1l0.143,-0.098l0.144,-0.096l0.146,-0.094l0.146,-0.093l0.148,-0.091l0.149,-0.09l0.15,-0.087l0.152,-0.086l0.152,-0.084l0.154,-0.082l0.155,-0.081l0.155,-0.079l0.157,-0.076l0.158,-0.075l0.159,-0.073l0.16,-0.072l0.161,-0.069l0.162,-0.067l0.163,-0.066l0.164,-0.063l0.165,-0.062l0.166,-0.059l0.166,-0.058l0.168,-0.056l0.169,-0.053l0.169,-0.052l0.17,-0.05l0.172,-0.047l0.172,-0.046l0.173,-0.043l0.173,-0.041l0.175,-0.039l0.175,-0.037l0.176,-0.035l0.177,-0.033l0.178,-0.031l0.178,-0.028l0.179,-0.026l0.18,-0.024l0.18,-0.022l0.181,-0.02l0.182,-0.017l0.183,-0.015l0.183,-0.013l0.183,-0.01l0.184,-0.009l0.185,-0.006l0.186,-0.003l0.186,-0.001l57.6,0l0,57.6Zm-48,-33.6l0,24l24,0l0,-24l-24,0Z" style="fill:#fff;"/><path d="M383.827,308.119l0.108,0.003l0.108,0.003l0.108,0.005l0.107,0.006l0.107,0.007l0.106,0.009l0.106,0.01l0.106,0.012l0.105,0.012l0.105,0.014l0.104,0.016l0.104,0.016l0.104,0.018l0.103,0.019l0.103,0.021l0.102,0.021l0.102,0.023l0.101,0.024l0.101,0.025l0.1,0.027l0.1,0.028l0.1,0.029l0.099,0.03l0.098,0.031l0.098,0.032l0.097,0.034l0.097,0.035l0.096,0.036l0.096,0.037l0.095,0.038l0.094,0.039l0.094,0.041l0.093,0.041l0.093,0.043l0.092,0.044l0.092,0.044l0.091,0.046l0.09,0.047l0.089,0.048l0.089,0.049l0.089,0.05l0.087,0.051l0.087,0.053l0.086,0.053l0.086,0.054l0.085,0.055l0.084,0.056l0.083,0.057l0.083,0.058l0.082,0.059l0.081,0.06l0.081,0.061l0.08,0.062l0.078,0.063l0.079,0.064l0.077,0.065l0.077,0.065l0.076,0.067l0.075,0.067l0.074,0.068l0.073,0.069l0.073,0.07l0.071,0.071l0.071,0.072l0.07,0.072l0.069,0.074l0.069,0.074l0.067,0.075l0.066,0.076l0.066,0.076l0.065,0.078l0.063,0.078l0.063,0.079l0.062,0.08l0.061,0.08l0.06,0.081l0.059,0.082l0.058,0.083l0.057,0.084l0.057,0.084l0.055,0.085l0.054,0.085l0.053,0.086l0.052,0.087l0.051,0.088l0.05,0.088l0.049,0.089l0.048,0.09l0.047,0.09l0.046,0.091l0.045,0.091l0.044,0.092l0.042,0.093l0.042,0.094l0.04,0.093l0.04,0.095l0.038,0.095l0.037,0.096l0.036,0.096l0.034,0.097l0.034,0.097l0.033,0.098l0.031,0.098l0.03,0.099l0.029,0.099l0.028,0.1l0.026,0.101l0.025,0.1l0.025,0.102l0.022,0.102l0.022,0.102l0.02,0.102l0.019,0.104l0.018,0.103l0.017,0.104l0.015,0.105l0.014,0.105l0.013,0.105l0.011,0.105l0.01,0.106l0.009,0.107l0.008,0.107l0.006,0.107l0.005,0.107l0.003,0.108l0.002,0.108l0.001,0.109l0,58.8l-0.002,0.217l-0.004,0.216l-0.007,0.216l-0.009,0.215l-0.012,0.214l-0.015,0.214l-0.018,0.212l-0.02,0.212l-0.023,0.212l-0.025,0.21l-0.028,0.21l-0.031,0.209l-0.033,0.208l-0.036,0.207l-0.038,0.206l-0.041,0.206l-0.043,0.204l-0.046,0.204l-0.048,0.203l-0.051,0.201l-0.053,0.201l-0.055,0.2l-0.058,0.199l-0.06,0.197l-0.063,0.197l-0.065,0.196l-0.067,0.194l-0.069,0.194l-0.072,0.192l-0.074,0.191l-0.077,0.19l-0.078,0.189l-0.081,0.188l-0.083,0.187l-0.086,0.185l-0.087,0.185l-0.09,0.183l-0.091,0.181l-0.094,0.181l-0.096,0.179l-0.098,0.178l-0.1,0.176l-0.103,0.176l-0.104,0.173l-0.106,0.173l-0.108,0.171l-0.111,0.17l-0.112,0.168l-0.114,0.167l-0.116,0.165l-0.119,0.164l-0.12,0.163l-0.122,0.161l-0.123,0.159l-0.126,0.158l-0.128,0.157l-0.129,0.154l-0.131,0.154l-0.133,0.151l-0.135,0.15l-0.136,0.149l-0.138,0.146l-0.14,0.145l-0.142,0.144l-0.144,0.142l-0.145,0.14l-0.146,0.138l-0.149,0.136l-0.15,0.135l-0.151,0.133l-0.154,0.131l-0.154,0.129l-0.157,0.128l-0.158,0.126l-0.159,0.123l-0.161,0.122l-0.163,0.12l-0.164,0.119l-0.165,0.116l-0.167,0.114l-0.168,0.112l-0.17,0.111l-0.171,0.108l-0.173,0.106l-0.173,0.104l-0.176,0.103l-0.176,0.1l-0.178,0.098l-0.179,0.096l-0.181,0.094l-0.181,0.091l-0.183,0.09l-0.185,0.087l-0.185,0.086l-0.187,0.083l-0.188,0.081l-0.189,0.078l-0.19,0.077l-0.191,0.074l-0.192,0.072l-0.194,0.069l-0.194,0.067l-0.196,0.065l-0.197,0.063l-0.197,0.06l-0.199,0.058l-0.2,0.055l-0.201,0.053l-0.201,0.051l-0.203,0.048l-0.204,0.046l-0.204,0.043l-0.206,0.041l-0.206,0.038l-0.207,0.036l-0.208,0.033l-0.209,0.031l-0.21,0.028l-0.21,0.025l-0.212,0.023l-0.212,0.02l-0.212,0.018l-0.214,0.015l-0.214,0.012l-0.215,0.009l-0.216,0.007l-0.216,0.004l-0.217,0.002l-50.4,0l-0.217,-0.002l-0.217,-0.004l-0.215,-0.007l-0.215,-0.009l-0.214,-0.012l-0.214,-0.015l-0.213,-0.018l-0.212,-0.02l-0.211,-0.023l-0.211,-0.025l-0.209,-0.028l-0.209,-0.031l-0.208,-0.033l-0.207,-0.036l-0.207,-0.038l-0.205,-0.041l-0.205,-0.043l-0.203,-0.046l-0.203,-0.048l-0.202,-0.051l-0.2,-0.053l-0.2,-0.055l-0.199,-0.058l-0.198,-0.06l-0.196,-0.063l-0.196,-0.065l-0.195,-0.067l-0.193,-0.069l-0.193,-0.072l-0.191,-0.074l-0.19,-0.077l-0.189,-0.078l-0.188,-0.081l-0.186,-0.083l-0.186,-0.086l-0.184,-0.087l-0.183,-0.09l-0.182,-0.091l-0.18,-0.094l-0.179,-0.096l-0.178,-0.098l-0.177,-0.1l-0.175,-0.103l-0.174,-0.104l-0.172,-0.106l-0.172,-0.108l-0.169,-0.111l-0.169,-0.112l-0.166,-0.114l-0.166,-0.116l-0.164,-0.119l-0.162,-0.12l-0.161,-0.122l-0.16,-0.123l-0.158,-0.126l-0.156,-0.128l-0.155,-0.129l-0.153,-0.131l-0.152,-0.133l-0.15,-0.135l-0.148,-0.136l-0.147,-0.138l-0.145,-0.14l-0.143,-0.142l-0.142,-0.144l-0.14,-0.145l-0.138,-0.146l-0.137,-0.149l-0.134,-0.15l-0.133,-0.151l-0.132,-0.154l-0.129,-0.154l-0.127,-0.157l-0.126,-0.158l-0.124,-0.159l-0.122,-0.161l-0.12,-0.163l-0.118,-0.164l-0.116,-0.165l-0.114,-0.167l-0.113,-0.168l-0.11,-0.17l-0.108,-0.171l-0.107,-0.173l-0.104,-0.173l-0.102,-0.176l-0.1,-0.176l-0.098,-0.178l-0.096,-0.179l-0.094,-0.181l-0.092,-0.181l-0.089,-0.183l-0.088,-0.185l-0.085,-0.185l-0.083,-0.187l-0.081,-0.188l-0.079,-0.189l-0.076,-0.19l-0.074,-0.191l-0.072,-0.192l-0.07,-0.194l-0.067,-0.194l-0.065,-0.196l-0.062,-0.197l-0.061,-0.197l-0.057,-0.199l-0.056,-0.2l-0.053,-0.201l-0.051,-0.201l-0.048,-0.203l-0.045,-0.204l-0.044,-0.204l-0.04,-0.206l-0.039,-0.206l-0.035,-0.207l-0.033,-0.208l-0.031,-0.209l-0.028,-0.21l-0.026,-0.21l-0.022,-0.212l-0.021,-0.212l-0.017,-0.212l-0.015,-0.214l-0.012,-0.214l-0.01,-0.215l-0.007,-0.216l-0.004,-0.216l-0.001,-0.217l0,-67.2l75.6,0l0.108,0Zm-51.708,24l0,36l36,0l0,-36l-36,0Z" style="fill:#fff;"/><path d="M365.905,216.12l0.185,0.003l0.185,0.006l0.184,0.009l0.184,0.01l0.183,0.013l0.182,0.015l0.182,0.017l0.181,0.02l0.181,0.022l0.179,0.024l0.18,0.026l0.178,0.028l0.177,0.031l0.177,0.033l0.176,0.035l0.176,0.037l0.174,0.039l0.174,0.041l0.173,0.043l0.172,0.046l0.171,0.047l0.17,0.05l0.17,0.052l0.169,0.053l0.167,0.056l0.167,0.058l0.166,0.059l0.165,0.062l0.164,0.063l0.163,0.066l0.162,0.067l0.161,0.069l0.16,0.072l0.159,0.073l0.157,0.075l0.157,0.076l0.156,0.079l0.155,0.081l0.153,0.082l0.153,0.084l0.151,0.086l0.15,0.087l0.149,0.09l0.148,0.091l0.147,0.093l0.145,0.094l0.145,0.096l0.143,0.098l0.141,0.1l0.141,0.101l0.139,0.103l0.138,0.105l0.137,0.106l0.135,0.107l0.134,0.11l0.133,0.111l0.131,0.112l0.13,0.114l0.129,0.116l0.127,0.117l0.126,0.118l0.124,0.12l0.123,0.121l0.122,0.123l0.12,0.125l0.118,0.125l0.117,0.128l0.116,0.128l0.114,0.13l0.112,0.132l0.111,0.132l0.109,0.134l0.108,0.136l0.106,0.136l0.104,0.138l0.103,0.14l0.102,0.14l0.099,0.142l0.098,0.143l0.096,0.144l0.095,0.146l0.093,0.146l0.091,0.148l0.089,0.149l0.088,0.15l0.086,0.152l0.084,0.152l0.082,0.154l0.08,0.155l0.079,0.155l0.077,0.157l0.075,0.158l0.073,0.159l0.071,0.16l0.069,0.161l0.068,0.162l0.065,0.163l0.064,0.164l0.061,0.165l0.06,0.166l0.058,0.166l0.055,0.168l0.054,0.169l0.052,0.169l0.049,0.17l0.048,0.172l0.045,0.172l0.043,0.173l0.042,0.173l0.039,0.175l0.037,0.175l0.035,0.176l0.033,0.177l0.03,0.178l0.029,0.178l0.026,0.179l0.024,0.18l0.022,0.18l0.019,0.181l0.018,0.182l0.015,0.183l0.013,0.183l0.01,0.183l0.008,0.184l0.006,0.185l0.004,0.186l0.001,0.186l0,43.2l-0.001,0.186l-0.004,0.185l-0.006,0.185l-0.008,0.184l-0.01,0.184l-0.013,0.183l-0.015,0.182l-0.018,0.182l-0.019,0.181l-0.022,0.181l-0.024,0.179l-0.026,0.18l-0.029,0.178l-0.03,0.177l-0.033,0.177l-0.035,0.176l-0.037,0.176l-0.039,0.174l-0.042,0.174l-0.043,0.173l-0.045,0.172l-0.048,0.171l-0.049,0.17l-0.052,0.17l-0.054,0.169l-0.055,0.167l-0.058,0.167l-0.06,0.166l-0.061,0.165l-0.064,0.164l-0.065,0.163l-0.068,0.162l-0.069,0.161l-0.071,0.16l-0.073,0.159l-0.075,0.157l-0.077,0.157l-0.079,0.156l-0.08,0.155l-0.082,0.153l-0.084,0.153l-0.086,0.151l-0.088,0.15l-0.089,0.149l-0.091,0.148l-0.093,0.147l-0.095,0.145l-0.096,0.145l-0.098,0.143l-0.099,0.141l-0.102,0.141l-0.103,0.139l-0.104,0.138l-0.106,0.137l-0.108,0.135l-0.109,0.134l-0.111,0.133l-0.112,0.131l-0.114,0.13l-0.116,0.129l-0.117,0.127l-0.118,0.126l-0.12,0.124l-0.122,0.123l-0.123,0.122l-0.124,0.12l-0.126,0.118l-0.127,0.117l-0.129,0.116l-0.13,0.114l-0.131,0.112l-0.133,0.111l-0.134,0.109l-0.135,0.108l-0.137,0.106l-0.138,0.104l-0.139,0.103l-0.141,0.102l-0.141,0.099l-0.143,0.098l-0.145,0.096l-0.145,0.095l-0.147,0.093l-0.148,0.091l-0.149,0.089l-0.15,0.088l-0.151,0.086l-0.153,0.084l-0.153,0.082l-0.155,0.08l-0.156,0.079l-0.157,0.077l-0.157,0.075l-0.159,0.073l-0.16,0.071l-0.161,0.069l-0.162,0.068l-0.163,0.065l-0.164,0.064l-0.165,0.061l-0.166,0.06l-0.167,0.058l-0.167,0.055l-0.169,0.054l-0.17,0.052l-0.17,0.049l-0.171,0.048l-0.172,0.045l-0.173,0.043l-0.174,0.042l-0.174,0.039l-0.176,0.037l-0.176,0.035l-0.177,0.033l-0.177,0.03l-0.178,0.029l-0.18,0.026l-0.179,0.024l-0.181,0.022l-0.181,0.019l-0.182,0.018l-0.182,0.015l-0.183,0.013l-0.184,0.01l-0.184,0.008l-0.185,0.006l-0.185,0.004l-0.186,0.001l-57.6,0l0,-57.6l0.001,-0.186l0.003,-0.186l0.006,-0.185l0.009,-0.184l0.01,-0.183l0.013,-0.183l0.015,-0.183l0.017,-0.182l0.02,-0.181l0.022,-0.18l0.024,-0.18l0.026,-0.179l0.028,-0.178l0.031,-0.178l0.033,-0.177l0.035,-0.176l0.037,-0.175l0.039,-0.175l0.041,-0.173l0.043,-0.173l0.046,-0.172l0.047,-0.172l0.05,-0.17l0.052,-0.169l0.053,-0.169l0.056,-0.168l0.058,-0.166l0.059,-0.166l0.062,-0.165l0.063,-0.164l0.066,-0.163l0.067,-0.162l0.069,-0.161l0.072,-0.16l0.073,-0.159l0.075,-0.158l0.076,-0.157l0.079,-0.155l0.081,-0.155l0.082,-0.154l0.084,-0.152l0.086,-0.152l0.087,-0.15l0.09,-0.149l0.091,-0.148l0.093,-0.146l0.094,-0.146l0.096,-0.144l0.098,-0.143l0.1,-0.142l0.101,-0.14l0.103,-0.14l0.105,-0.138l0.106,-0.136l0.107,-0.136l0.11,-0.134l0.111,-0.132l0.112,-0.132l0.114,-0.13l0.116,-0.128l0.117,-0.128l0.118,-0.125l0.12,-0.125l0.121,-0.123l0.123,-0.121l0.125,-0.12l0.125,-0.118l0.128,-0.117l0.128,-0.116l0.13,-0.114l0.132,-0.112l0.132,-0.111l0.134,-0.11l0.136,-0.107l0.136,-0.106l0.138,-0.105l0.14,-0.103l0.14,-0.101l0.142,-0.1l0.143,-0.098l0.144,-0.096l0.146,-0.094l0.146,-0.093l0.148,-0.091l0.149,-0.09l0.15,-0.087l0.152,-0.086l0.152,-0.084l0.154,-0.082l0.155,-0.081l0.155,-0.079l0.157,-0.076l0.158,-0.075l0.159,-0.073l0.16,-0.072l0.161,-0.069l0.162,-0.067l0.163,-0.066l0.164,-0.063l0.165,-0.062l0.166,-0.059l0.166,-0.058l0.168,-0.056l0.169,-0.053l0.169,-0.052l0.17,-0.05l0.172,-0.047l0.172,-0.046l0.173,-0.043l0.173,-0.041l0.175,-0.039l0.175,-0.037l0.176,-0.035l0.177,-0.033l0.178,-0.031l0.178,-0.028l0.179,-0.026l0.18,-0.024l0.18,-0.022l0.181,-0.02l0.182,-0.017l0.183,-0.015l0.183,-0.013l0.183,-0.01l0.184,-0.009l0.185,-0.006l0.186,-0.003l0.186,-0.001l43.2,0l0.186,0.001Zm-33.786,23.999l0,24l24,0l0,-24l-24,0Z" style="fill:#fff;"/><path d="M278.643,192.12l0.123,0.002l0.124,0.004l0.122,0.005l0.123,0.007l0.122,0.009l0.122,0.01l0.121,0.011l0.12,0.013l0.121,0.015l0.12,0.016l0.119,0.017l0.119,0.019l0.118,0.021l0.118,0.022l0.117,0.023l0.117,0.025l0.117,0.026l0.116,0.027l0.115,0.029l0.114,0.031l0.115,0.031l0.113,0.033l0.113,0.035l0.113,0.035l0.111,0.038l0.112,0.038l0.11,0.04l0.11,0.041l0.109,0.042l0.109,0.044l0.108,0.045l0.107,0.046l0.107,0.047l0.106,0.049l0.105,0.05l0.105,0.051l0.104,0.053l0.103,0.053l0.102,0.055l0.102,0.056l0.101,0.057l0.1,0.059l0.099,0.059l0.099,0.061l0.098,0.062l0.096,0.063l0.097,0.064l0.095,0.066l0.095,0.066l0.093,0.067l0.093,0.069l0.092,0.07l0.091,0.07l0.09,0.072l0.09,0.073l0.088,0.074l0.088,0.075l0.086,0.076l0.086,0.077l0.085,0.078l0.084,0.079l0.083,0.08l0.082,0.081l0.081,0.082l0.08,0.083l0.079,0.084l0.078,0.084l0.077,0.086l0.076,0.087l0.075,0.087l0.073,0.089l0.073,0.089l0.072,0.09l0.071,0.091l0.07,0.092l0.068,0.093l0.068,0.094l0.066,0.095l0.065,0.095l0.064,0.096l0.064,0.097l0.061,0.098l0.061,0.098l0.06,0.1l0.058,0.1l0.057,0.101l0.056,0.101l0.055,0.103l0.054,0.103l0.052,0.104l0.052,0.104l0.049,0.106l0.049,0.106l0.048,0.106l0.046,0.108l0.045,0.108l0.043,0.108l0.043,0.109l0.041,0.11l0.04,0.111l0.038,0.111l0.037,0.112l0.036,0.112l0.034,0.113l0.033,0.114l0.032,0.114l0.03,0.115l0.029,0.115l0.028,0.116l0.026,0.116l0.025,0.117l0.023,0.117l0.022,0.118l0.02,0.119l0.019,0.119l0.018,0.119l0.016,0.12l0.014,0.12l0.013,0.121l0.012,0.121l0.01,0.122l0.008,0.122l0.007,0.122l0.006,0.123l0.004,0.123l0.002,0.124l0.001,0.124l0,86.4l-76.8,0l-0.124,-0.001l-0.124,-0.001l-0.124,-0.002l-0.123,-0.002l-0.124,-0.004l-0.123,-0.004l-0.123,-0.005l-0.123,-0.006l-0.122,-0.007l-0.123,-0.007l-0.122,-0.008l-0.122,-0.009l-0.121,-0.01l-0.122,-0.01l-0.121,-0.012l-0.121,-0.011l-0.121,-0.013l-0.121,-0.014l-0.12,-0.014l-0.12,-0.015l-0.12,-0.015l-0.12,-0.017l-0.119,-0.017l-0.12,-0.018l-0.119,-0.018l-0.118,-0.02l-0.119,-0.02l-0.118,-0.02l-0.118,-0.022l-0.118,-0.022l-0.117,-0.023l-0.118,-0.024l-0.233,-0.049l-0.233,-0.052l-0.232,-0.055l-0.23,-0.058l-0.23,-0.061l-0.228,-0.063l-0.227,-0.066l-0.226,-0.069l-0.225,-0.072l-0.223,-0.074l-0.223,-0.077l-0.221,-0.079l-0.22,-0.082l-0.218,-0.085l-0.218,-0.087l-0.216,-0.09l-0.214,-0.092l-0.214,-0.095l-0.212,-0.098l-0.21,-0.1l-0.209,-0.102l-0.208,-0.105l-0.206,-0.107l-0.205,-0.11l-0.203,-0.112l-0.202,-0.115l-0.2,-0.116l-0.199,-0.12l-0.197,-0.121l-0.196,-0.124l-0.194,-0.126l-0.192,-0.128l-0.191,-0.131l-0.189,-0.132l-0.187,-0.135l-0.186,-0.138l-0.184,-0.139l-0.182,-0.142l-0.181,-0.143l-0.178,-0.146l-0.177,-0.148l-0.175,-0.15l-0.174,-0.152l-0.171,-0.154l-0.17,-0.156l-0.167,-0.158l-0.166,-0.159l-0.164,-0.162l-0.162,-0.164l-0.16,-0.166l-0.158,-0.168l-0.156,-0.169l-0.154,-0.172l-0.152,-0.173l-0.15,-0.175l-0.148,-0.177l-0.145,-0.179l-0.144,-0.18l-0.141,-0.183l-0.14,-0.184l-0.137,-0.185l-0.135,-0.188l-0.133,-0.189l-0.13,-0.19l-0.129,-0.193l-0.126,-0.194l-0.123,-0.195l-0.122,-0.197l-0.119,-0.199l-0.117,-0.2l-0.114,-0.202l-0.112,-0.204l-0.11,-0.204l-0.107,-0.207l-0.105,-0.207l-0.103,-0.209l-0.1,-0.211l-0.097,-0.212l-0.095,-0.213l-0.092,-0.215l-0.09,-0.216l-0.088,-0.217l-0.084,-0.219l-0.082,-0.219l-0.08,-0.222l-0.077,-0.222l-0.074,-0.224l-0.071,-0.224l-0.069,-0.226l-0.066,-0.227l-0.064,-0.229l-0.06,-0.229l-0.058,-0.231l-0.055,-0.231l-0.052,-0.233l-0.05,-0.234l-0.023,-0.117l-0.023,-0.118l-0.023,-0.117l-0.021,-0.118l-0.021,-0.119l-0.02,-0.118l-0.019,-0.119l-0.019,-0.119l-0.018,-0.119l-0.017,-0.12l-0.016,-0.119l-0.016,-0.12l-0.015,-0.12l-0.014,-0.121l-0.013,-0.12l-0.013,-0.121l-0.012,-0.121l-0.011,-0.122l-0.011,-0.121l-0.009,-0.122l-0.009,-0.122l-0.008,-0.122l-0.008,-0.122l-0.006,-0.123l-0.006,-0.123l-0.005,-0.123l-0.004,-0.123l-0.004,-0.123l-0.003,-0.124l-0.002,-0.123l-0.001,-0.124l0,-0.124l0,-57.6l0,-0.124l0.001,-0.124l0.002,-0.124l0.003,-0.123l0.004,-0.124l0.004,-0.123l0.005,-0.123l0.006,-0.123l0.006,-0.122l0.008,-0.123l0.008,-0.122l0.009,-0.122l0.009,-0.121l0.011,-0.122l0.011,-0.121l0.012,-0.121l0.013,-0.121l0.013,-0.121l0.014,-0.12l0.015,-0.12l0.016,-0.12l0.016,-0.12l0.017,-0.119l0.018,-0.12l0.019,-0.119l0.019,-0.118l0.02,-0.119l0.021,-0.118l0.021,-0.118l0.023,-0.118l0.023,-0.117l0.023,-0.118l0.05,-0.233l0.052,-0.233l0.055,-0.232l0.058,-0.23l0.06,-0.23l0.064,-0.228l0.066,-0.227l0.069,-0.226l0.071,-0.225l0.074,-0.223l0.077,-0.223l0.08,-0.221l0.082,-0.22l0.084,-0.218l0.088,-0.218l0.09,-0.216l0.092,-0.214l0.095,-0.214l0.097,-0.212l0.1,-0.21l0.103,-0.209l0.105,-0.208l0.107,-0.206l0.11,-0.205l0.112,-0.203l0.114,-0.202l0.117,-0.2l0.119,-0.199l0.122,-0.197l0.123,-0.196l0.126,-0.194l0.129,-0.192l0.13,-0.191l0.133,-0.189l0.135,-0.187l0.137,-0.186l0.14,-0.184l0.141,-0.182l0.144,-0.181l0.145,-0.178l0.148,-0.177l0.15,-0.175l0.152,-0.174l0.154,-0.171l0.156,-0.17l0.158,-0.167l0.16,-0.166l0.162,-0.164l0.164,-0.162l0.166,-0.16l0.167,-0.158l0.17,-0.156l0.171,-0.154l0.174,-0.152l0.175,-0.15l0.177,-0.148l0.178,-0.145l0.181,-0.144l0.182,-0.141l0.184,-0.14l0.186,-0.137l0.187,-0.135l0.189,-0.133l0.191,-0.13l0.192,-0.129l0.194,-0.126l0.196,-0.123l0.197,-0.122l0.199,-0.119l0.2,-0.117l0.202,-0.114l0.203,-0.112l0.205,-0.11l0.206,-0.107l0.208,-0.105l0.209,-0.103l0.21,-0.1l0.212,-0.097l0.214,-0.095l0.214,-0.092l0.216,-0.09l0.218,-0.088l0.218,-0.084l0.22,-0.082l0.221,-0.08l0.223,-0.077l0.223,-0.074l0.225,-0.071l0.226,-0.069l0.227,-0.066l0.228,-0.064l0.23,-0.06l0.23,-0.058l0.232,-0.055l0.233,-0.052l0.233,-0.05l0.118,-0.023l0.117,-0.023l0.118,-0.023l0.118,-0.021l0.118,-0.021l0.119,-0.02l0.118,-0.019l0.119,-0.019l0.12,-0.018l0.119,-0.017l0.12,-0.016l0.12,-0.016l0.12,-0.015l0.12,-0.014l0.121,-0.013l0.121,-0.013l0.121,-0.012l0.121,-0.011l0.122,-0.011l0.121,-0.009l0.122,-0.009l0.122,-0.008l0.123,-0.008l0.122,-0.006l0.123,-0.006l0.123,-0.005l0.123,-0.004l0.124,-0.004l0.123,-0.003l0.124,-0.002l0.124,-0.001l0.124,0l67.2,0l0.124,0.001Zm-62.524,23.999l0,48l48,0l0,-48l-48,0Z" style="fill:#fff;"/></g></svg>